<?xml version="1.0" encoding="iso-8859-1"?>
<!-- Generator: Adobe Illustrator 18.0.0, SVG Export Plug-In . SVG Version: 6.00 Build 0)  -->
<!DOCTYPE svg PUBLIC "-//W3C//DTD SVG 1.1//EN" "http://www.w3.org/Graphics/SVG/1.1/DTD/svg11.dtd">
<svg xmlns="http://www.w3.org/2000/svg" xmlns:xlink="http://www.w3.org/1999/xlink" version="1.1" id="Capa_1" x="0px" y="0px" viewBox="0 0 474.971 474.971" style="enable-background:new 0 0 474.971 474.971;" xml:space="preserve" width="512px" height="512px">
<path d="M286.649,103.07c3.834,0.631,7.891,0.95,12.115,0.95c21.659,0,47.359-8.033,66.1-21.397  c16.174-11.534,25.697-25.753,27.541-41.119c0.3-2.497-0.521-4.998-2.243-6.831c-1.721-1.833-4.161-2.814-6.677-2.668  c-72.803,4.121-98.31,43.858-104.377,55.832c-10.513,5.116-18.412,11.486-24.344,18.073l4.273-36.375  c10.735-8.016,43.961-35.874,30.442-64.649c-0.974-2.072-2.742-3.664-4.905-4.416c-2.164-0.751-4.537-0.598-6.586,0.425  c-24.979,12.473-33.232,29.696-35.757,41.948c-2.073,10.058-0.721,18.341,0.222,22.257c-0.011,0.078-0.03,0.153-0.039,0.232  l-2.01,17.107c-6.358-8.253-14.585-14.884-24.504-19.768c-5.719-11.065-28.527-45.519-92.064-49.115  c-2.509-0.148-4.956,0.834-6.677,2.668c-1.722,1.833-2.543,4.334-2.243,6.831c1.65,13.753,10.136,26.452,24.541,36.724  c16.572,11.818,39.313,18.918,58.498,18.918c3.614,0,7.097-0.257,10.394-0.777c8.093,3.983,14.673,9.405,19.548,16.178  c5.323,7.396,8.136,16.404,8.136,26.051v27.132c-7.728-5.619-18.245-10.971-31.93-13.437c-3.101-4.619-9.339-12.529-19.37-19.417  c-13.601-9.34-37.124-18.693-71.943-10.199c-2.421,0.59-4.462,2.214-5.581,4.441s-1.204,4.833-0.233,7.128  c12.874,30.428,50.235,35.467,73.577,35.467c8.744,0,15.518-0.707,18.303-1.052c18.222,2.681,29.446,11.667,35.148,17.781  c0,0-2.631,21.729-2.791,23.09c-3.654-2.458-14.66-8.106-14.991-8.362c-0.608-0.468-15.167-11.505-38.612-15.375  c-21.397-3.535-54.702-1.623-91.851,27.533c-1.933,1.517-3.115,3.795-3.241,6.249s0.815,4.842,2.582,6.549  c12.36,11.946,28.207,16.221,44.576,16.221c33.279,0,68.685-17.684,81.178-24.55c10.881,4.554,17.071,10.7,17.11,10.74  c0.347,0.358,0.722,0.67,1.112,0.954c-3.001,31.052-4.544,62.487-4.544,93.768v153.158h-39.498c-4.694,0-8.5,3.806-8.5,8.5  s3.806,8.5,8.5,8.5h120.936c4.694,0,8.5-3.806,8.5-8.5s-3.806-8.5-8.5-8.5h-39.498V302.945c0-24.692-0.992-49.486-2.927-74.097  c0.298-0.235,5.513-5.342,13.573-8.677c10.089,3.591,40.651,13.241,67.49,9.08c13.105-2.032,25.324-7.359,33.829-18.293  c1.531-1.968,2.121-4.509,1.613-6.95c-0.508-2.441-2.062-4.536-4.251-5.731c-32.868-17.932-59.486-15.308-76.029-9.945  c-14.687,4.76-24.243,12.481-27.6,15.503c-4.076,1.555-7.547,3.358-10.414,5.102c-0.673-6.719-1.391-13.424-2.207-20.097  l-0.911-7.455c0.005-0.009,0.011-0.016,0.016-0.024c0.089-0.153,9.257-15.134,30.214-21.524c5.192,0.615,13.879,1.409,24.14,1.409  c26.363,0,63.083-5.244,77.413-32.231c1.227-2.311,1.321-5.058,0.256-7.447c-1.065-2.39-3.171-4.155-5.71-4.787  c-38.928-9.693-65.721-1.48-81.342,7.114c-15.122,8.32-23.083,18.662-25.105,21.536c-9.691,3.738-17.144,8.843-22.61,13.641  l-1.839-15.044C254.754,139.592,259.603,116.209,286.649,103.07z M372.212,50.089c-4.126,8.066-11.171,14.381-17.219,18.693  c-15.633,11.149-37.466,18.094-55.359,18.268C308.826,74.863,329.776,55.47,372.212,50.089z M149.327,45.939  c-4.721-3.366-10.15-8.15-13.739-14.169c33.605,4.741,51.089,19.584,59.419,29.909C179.998,61.03,162.228,55.139,149.327,45.939z   M163.784,133.21c-15.992-2.083-27.709-7.003-35-14.671c27.311-3.331,44.284,6.87,53.554,15.688  C176.886,134.293,170.443,134.077,163.784,133.21z M162.95,201.302c-17.623,5.36-40.645,9.14-57.529,0.283  c22.694-15.222,45.731-21.136,68.612-17.592c7.529,1.167,13.976,3.243,19.061,5.357C185.238,193.152,174.609,197.756,162.95,201.302  z M356.358,207.813c-16.134,8.919-41.968,5.338-60.452,0.428C308.277,202.081,329.091,196.709,356.358,207.813z M367.371,130.595  c-15.512,12.518-43.533,14.436-63.822,13.451C314.861,135.457,335.269,125.893,367.371,130.595z M259.039,45.55  c2.057-9.014,7.521-16.802,16.289-23.251c-0.978,5.621-4.415,11.874-10.292,18.699c-2.09,2.428-4.29,4.677-6.415,6.687  C258.735,46.987,258.873,46.274,259.039,45.55z M241.531,457.971V304.812c0-29.139,1.34-58.418,3.992-87.378  c2.624,28.336,3.949,56.992,3.949,85.51v155.026H241.531z" fill="#df744a"/>
<g>
</g>
<g>
</g>
<g>
</g>
<g>
</g>
<g>
</g>
<g>
</g>
<g>
</g>
<g>
</g>
<g>
</g>
<g>
</g>
<g>
</g>
<g>
</g>
<g>
</g>
<g>
</g>
<g>
</g>
</svg>
