<?xml version="1.0" encoding="iso-8859-1"?>
<!-- Generator: Adobe Illustrator 18.0.0, SVG Export Plug-In . SVG Version: 6.00 Build 0)  -->
<!DOCTYPE svg PUBLIC "-//W3C//DTD SVG 1.1//EN" "http://www.w3.org/Graphics/SVG/1.1/DTD/svg11.dtd">
<svg xmlns="http://www.w3.org/2000/svg" xmlns:xlink="http://www.w3.org/1999/xlink" version="1.1" id="Capa_1" x="0px" y="0px" viewBox="0 0 477.477 477.477" style="enable-background:new 0 0 477.477 477.477;" xml:space="preserve" width="512px" height="512px">
<g>
	<path d="M238.742,65.32c-24.081,0-43.672,19.591-43.672,43.672c0,24.081,19.591,43.672,43.672,43.672s43.673-19.591,43.673-43.672   C282.415,84.912,262.823,65.32,238.742,65.32z M238.742,135.665c-14.707,0-26.672-11.965-26.672-26.672   s11.965-26.672,26.672-26.672s26.673,11.965,26.673,26.672S253.449,135.665,238.742,135.665z" fill="#df744a"/>
	<path d="M339.183,118.075l-31.285-5.516c0.06-1.181,0.091-2.37,0.091-3.566c0-1.194-0.031-2.381-0.091-3.561l31.285-5.517   c4.623-0.815,7.71-5.224,6.895-9.847c-0.815-4.623-5.209-7.712-9.848-6.895l-31.284,5.516c-0.702-2.283-1.514-4.519-2.44-6.696   l27.514-15.885c4.065-2.347,5.458-7.546,3.111-11.611c-2.348-4.067-7.546-5.457-11.611-3.111l-27.542,15.901   c-1.433-1.893-2.966-3.706-4.581-5.441l20.45-24.372c3.018-3.596,2.548-8.958-1.048-11.975c-3.598-3.019-8.958-2.549-11.976,1.047   l-20.445,24.365c-1.985-1.291-4.039-2.48-6.157-3.566l10.875-29.879c1.605-4.411-0.669-9.289-5.08-10.895   c-4.413-1.606-9.289,0.669-10.895,5.08l-10.871,29.865c-2.297-0.528-4.636-0.941-7.013-1.233V8.5c0-4.694-3.806-8.5-8.5-8.5   s-8.5,3.806-8.5,8.5v31.786c-2.377,0.293-4.716,0.706-7.014,1.234l-10.87-29.867c-1.604-4.411-6.479-6.686-10.895-5.08   c-4.411,1.605-6.686,6.483-5.08,10.895l10.876,29.882c-2.117,1.086-4.171,2.275-6.155,3.566l-20.447-24.368   c-3.018-3.595-8.378-4.066-11.976-1.047c-3.596,3.018-4.065,8.379-1.048,11.975l20.453,24.375c-1.615,1.734-3.147,3.546-4.58,5.439   l-27.546-15.904c-4.065-2.346-9.264-0.954-11.611,3.111c-2.347,4.065-0.954,9.264,3.111,11.611l27.519,15.888   c-0.925,2.177-1.737,4.411-2.439,6.694l-31.292-5.518c-4.618-0.813-9.031,2.271-9.847,6.895c-0.815,4.623,2.271,9.032,6.896,9.847   l31.292,5.518c-0.06,1.179-0.09,2.366-0.09,3.56c0,1.195,0.031,2.384,0.091,3.564l-31.292,5.518   c-4.624,0.815-7.711,5.224-6.896,9.847c0.728,4.124,4.313,7.025,8.361,7.025c0.489,0,0.986-0.042,1.485-0.13l31.293-5.519   c0.702,2.283,1.514,4.517,2.439,6.694l-27.521,15.889c-4.065,2.347-5.458,7.546-3.111,11.611c1.574,2.727,4.432,4.251,7.369,4.251   c1.442,0,2.903-0.368,4.242-1.14l27.549-15.905c1.432,1.893,2.964,3.704,4.579,5.438l-20.456,24.378   c-3.018,3.596-2.548,8.958,1.048,11.975c1.593,1.336,3.531,1.989,5.459,1.989c2.426,0,4.835-1.033,6.517-3.036l20.45-24.371   c1.984,1.29,4.037,2.479,6.154,3.565l-10.877,29.886c-1.605,4.412,0.669,9.289,5.08,10.895c0.96,0.349,1.941,0.515,2.906,0.515   c3.473,0,6.732-2.144,7.988-5.595l10.872-29.871c2.297,0.528,4.635,0.941,7.012,1.233v110.435   c-14.737-18.897-37.695-31.085-63.461-31.085c-4.694,0-8.5,3.806-8.5,8.5c0,41.495,31.576,75.748,71.961,80.008v30.482   c-10.281-9.841-23.719-15.259-37.997-15.259c-4.694,0-8.5,3.806-8.5,8.5c0,27.434,20.194,50.238,46.497,54.337v36.861h-52.247   c-4.694,0-8.5,3.806-8.5,8.5s3.806,8.5,8.5,8.5h121.494c4.694,0,8.5-3.806,8.5-8.5s-3.806-8.5-8.5-8.5h-52.247v-67.372   c32.943-4.192,58.5-32.379,58.5-66.442c0-4.694-3.806-8.5-8.5-8.5c-19.86,0-37.72,8.694-50,22.466v-33.867   c46.206-4.301,82.499-43.288,82.499-90.599c0-4.694-3.806-8.5-8.5-8.5c-30.462,0-57.473,15.047-73.999,38.098v-68.061   c2.377-0.292,4.715-0.705,7.012-1.233l10.872,29.87c1.256,3.452,4.516,5.595,7.988,5.595c0.965,0,1.946-0.166,2.906-0.515   c4.411-1.605,6.686-6.483,5.08-10.895l-10.877-29.883c2.117-1.085,4.171-2.275,6.156-3.565l20.448,24.368   c1.682,2.003,4.09,3.036,6.517,3.036c1.928,0,3.866-0.652,5.459-1.989c3.596-3.018,4.065-8.379,1.048-11.975l-20.453-24.375   c1.615-1.734,3.148-3.546,4.581-5.439l27.545,15.903c1.339,0.773,2.8,1.14,4.242,1.14c2.938,0,5.795-1.525,7.369-4.251   c2.347-4.065,0.954-9.264-3.111-11.611l-27.515-15.886c0.925-2.177,1.738-4.412,2.44-6.695l31.285,5.517   c0.5,0.088,0.996,0.13,1.486,0.13c4.047,0,7.634-2.902,8.361-7.025C346.893,123.299,343.806,118.89,339.183,118.075z    M287.856,336.046c-3.823,20.063-19.672,35.911-39.734,39.735C251.945,355.718,267.794,339.87,287.856,336.046z M312.187,225.213   c-4.113,33.583-30.814,60.286-64.397,64.399C251.903,256.028,278.604,229.326,312.187,225.213z M256.664,158.072   c-0.019,0.007-0.038,0.011-0.057,0.018c-0.007,0.003-0.014,0.006-0.022,0.009c-5.57,2.03-11.579,3.141-17.844,3.141   c-28.809,0-52.246-23.438-52.246-52.247c0-22.496,14.291-41.716,34.271-49.06c0.034-0.012,0.069-0.02,0.103-0.032   c0.017-0.006,0.033-0.015,0.05-0.021c5.547-2.019,11.528-3.125,17.762-3.132c0.019,0,0.038,0.003,0.057,0.003   c0.02,0,0.039-0.003,0.059-0.003c6.222,0.007,12.192,1.109,17.73,3.12c0.027,0.01,0.052,0.024,0.08,0.034   c0.046,0.017,0.093,0.028,0.14,0.044c19.965,7.352,34.242,26.563,34.242,49.048C290.989,131.509,276.672,150.743,256.664,158.072z    M193.865,310.421c-9.799-9.8-15.999-22.24-17.935-35.715c27.682,4.016,49.635,25.969,53.65,53.65   C216.105,326.42,203.665,320.221,193.865,310.421z M211.871,396.146c-4.812-4.812-8.174-10.688-9.867-17.097   c13.12,3.491,23.475,13.844,26.965,26.965C222.559,404.321,216.683,400.958,211.871,396.146z" fill="#df744a"/>
</g>
<g>
</g>
<g>
</g>
<g>
</g>
<g>
</g>
<g>
</g>
<g>
</g>
<g>
</g>
<g>
</g>
<g>
</g>
<g>
</g>
<g>
</g>
<g>
</g>
<g>
</g>
<g>
</g>
<g>
</g>
</svg>
